<?xml version="1.0" standalone="no"?>
<!DOCTYPE svg PUBLIC "-//W3C//DTD SVG 20010904//EN"
 "http://www.w3.org/TR/2001/REC-SVG-20010904/DTD/svg10.dtd">
<svg version="1.0" xmlns="http://www.w3.org/2000/svg"
 width="700.000000pt" height="700.000000pt" viewBox="0 0 700.000000 700.000000"
 preserveAspectRatio="xMidYMid meet">
<metadata>
Created by potrace 1.14, written by Peter Selinger 2001-2017
</metadata>
<g transform="translate(0.000000,700.000000) scale(0.100000,-0.100000)"
fill="#000000" stroke="none">
<path d="M3535 6162 c-16 -2 -52 -10 -80 -20 -44 -14 -128 -16 -755 -17 -550
-1 -714 -4 -747 -15 -62 -19 -132 -78 -167 -140 -28 -50 -31 -62 -34 -176 l-4
-122 -62 -16 c-33 -9 -169 -45 -301 -80 -132 -35 -346 -92 -475 -126 -129 -34
-254 -73 -277 -86 -55 -32 -108 -95 -127 -152 -22 -65 -20 -132 9 -237 21 -78
120 -452 130 -495 4 -16 57 -217 119 -450 20 -74 55 -205 77 -290 42 -160 49
-186 119 -450 22 -85 43 -166 46 -180 2 -14 9 -36 14 -50 5 -14 38 -137 74
-275 71 -275 100 -382 122 -465 9 -30 17 -63 19 -72 2 -9 13 -50 24 -90 11
-40 33 -125 50 -188 16 -63 42 -160 56 -215 15 -55 28 -107 30 -115 2 -8 25
-94 51 -190 25 -96 47 -179 48 -185 28 -113 78 -177 173 -222 96 -44 86 -46
758 132 94 25 256 67 360 95 105 27 242 63 305 80 256 68 388 103 447 117 l61
14 289 -76 c158 -42 311 -83 338 -91 28 -8 160 -43 295 -79 354 -94 384 -102
505 -136 199 -55 298 -44 390 45 51 50 67 85 107 231 16 61 36 135 45 165 8
30 16 62 18 70 2 8 29 110 60 225 84 312 107 398 110 415 2 8 12 49 24 90 26
92 162 597 217 805 13 50 31 117 40 150 9 33 17 67 19 75 2 9 19 74 39 145 42
155 96 354 101 375 1 8 22 83 44 167 23 84 44 160 46 170 2 10 20 77 40 148
19 72 37 139 39 150 2 11 22 85 44 165 84 303 113 423 113 468 -1 91 -42 173
-115 229 -46 35 -106 54 -426 138 -118 31 -237 62 -265 70 -27 9 -169 47 -315
85 -146 39 -272 73 -281 76 -12 3 -16 15 -14 47 2 50 -15 130 -37 172 -31 58
-118 126 -181 142 -12 3 -278 6 -592 7 -497 2 -578 5 -635 20 -83 21 -89 22
-125 18z"/>
</g>
</svg>
